<svg width="18" height="18" viewBox="0 0 18 18" fill="none" xmlns="http://www.w3.org/2000/svg">
<g clip-path="url(#clip0_1048_15288)">
<path d="M8.15999 1.57265C8.45453 1.28406 8.6018 1.13977 8.77096 1.08557C8.9198 1.03788 9.07982 1.03788 9.22866 1.08557C9.39782 1.13977 9.54509 1.28407 9.83963 1.57265L10.2675 1.99182C10.4437 2.16452 10.5318 2.25087 10.6358 2.30331C10.7278 2.34971 10.8284 2.37666 10.9313 2.38247C11.0475 2.38904 11.167 2.35833 11.406 2.2969L11.9861 2.14779C12.3855 2.04514 12.5851 1.99381 12.7587 2.03146C12.9115 2.06457 13.0501 2.14458 13.1551 2.2603C13.2745 2.39182 13.3299 2.59042 13.4407 2.98761L13.6016 3.56453C13.6679 3.80223 13.7011 3.92107 13.7649 4.01846C13.8213 4.10465 13.895 4.17828 13.9812 4.23475C14.0785 4.29856 14.1974 4.33171 14.4351 4.39801L15.012 4.55893C15.4092 4.66971 15.6078 4.72511 15.7393 4.8445C15.855 4.94956 15.935 5.08814 15.9682 5.24088C16.0058 5.41448 15.9545 5.61416 15.8518 6.01354L15.7027 6.59362C15.6413 6.83262 15.6106 6.95212 15.6172 7.06837C15.623 7.17125 15.6499 7.27182 15.6963 7.36382C15.7488 7.46778 15.8351 7.55591 16.0078 7.73217L16.427 8.15999C16.7156 8.45453 16.8599 8.6018 16.9141 8.77096C16.9617 8.9198 16.9617 9.07982 16.9141 9.22866C16.8599 9.39782 16.7156 9.54509 16.427 9.83963L16.0078 10.2675C15.8351 10.4437 15.7488 10.5318 15.6963 10.6358C15.6499 10.7278 15.623 10.8284 15.6172 10.9313C15.6106 11.0475 15.6413 11.167 15.7027 11.406L15.8518 11.9861C15.9545 12.3855 16.0058 12.5851 15.9682 12.7587C15.935 12.9115 15.855 13.0501 15.7393 13.1551C15.6078 13.2745 15.4092 13.3299 15.012 13.4407L14.4351 13.6016C14.1974 13.6679 14.0785 13.7011 13.9812 13.7649C13.895 13.8213 13.8213 13.895 13.7649 13.9812C13.7011 14.0785 13.6679 14.1974 13.6016 14.4351L13.4407 15.012C13.3299 15.4092 13.2745 15.6078 13.1551 15.7393C13.0501 15.855 12.9115 15.935 12.7587 15.9682C12.5851 16.0058 12.3855 15.9545 11.9861 15.8518L11.406 15.7027C11.167 15.6413 11.0475 15.6106 10.9313 15.6172C10.8284 15.623 10.7278 15.6499 10.6358 15.6963C10.5318 15.7488 10.4437 15.8351 10.2675 16.0078L9.83963 16.427C9.54509 16.7156 9.39782 16.8599 9.22866 16.9141C9.07982 16.9617 8.9198 16.9617 8.77096 16.9141C8.6018 16.8599 8.45453 16.7156 8.15999 16.427L7.73217 16.0078C7.55591 15.8351 7.46778 15.7488 7.36382 15.6963C7.27182 15.6499 7.17125 15.623 7.06837 15.6172C6.95212 15.6106 6.83262 15.6413 6.59362 15.7027L6.01354 15.8518C5.61416 15.9545 5.41448 16.0058 5.24088 15.9682C5.08814 15.935 4.94956 15.855 4.8445 15.7393C4.72511 15.6078 4.66971 15.4092 4.55893 15.012L4.39801 14.4351C4.33171 14.1974 4.29856 14.0785 4.23475 13.9812C4.17828 13.895 4.10465 13.8213 4.01846 13.7649C3.92107 13.7011 3.80223 13.6679 3.56453 13.6016L2.98761 13.4407C2.59042 13.3299 2.39182 13.2745 2.2603 13.1551C2.14458 13.0501 2.06457 12.9115 2.03146 12.7587C1.99381 12.5851 2.04514 12.3855 2.14779 11.9861L2.29689 11.406C2.35833 11.167 2.38904 11.0475 2.38247 10.9313C2.37666 10.8284 2.34971 10.7278 2.30331 10.6358C2.25087 10.5318 2.16452 10.4437 1.99182 10.2675L1.57265 9.83963C1.28406 9.54509 1.13977 9.39782 1.08557 9.22866C1.03788 9.07982 1.03788 8.9198 1.08557 8.77096C1.13977 8.6018 1.28407 8.45453 1.57265 8.15999L1.99182 7.73217C2.16452 7.55591 2.25087 7.46778 2.30331 7.36382C2.34971 7.27182 2.37666 7.17125 2.38247 7.06837C2.38904 6.95212 2.35833 6.83262 2.2969 6.59362L2.14779 6.01354C2.04514 5.61416 1.99381 5.41448 2.03146 5.24088C2.06457 5.08814 2.14458 4.94956 2.2603 4.8445C2.39182 4.72511 2.59042 4.66971 2.98761 4.55893L3.56453 4.39801C3.80223 4.33171 3.92107 4.29856 4.01846 4.23475C4.10465 4.17828 4.17828 4.10465 4.23475 4.01846C4.29856 3.92107 4.33171 3.80223 4.39801 3.56453L4.55893 2.98761C4.66971 2.59042 4.72511 2.39182 4.8445 2.2603C4.94956 2.14458 5.08814 2.06457 5.24088 2.03146C5.41448 1.99381 5.61416 2.04514 6.01354 2.14779L6.59362 2.29689C6.83262 2.35833 6.95212 2.38904 7.06837 2.38247C7.17125 2.37666 7.27182 2.34971 7.36382 2.30331C7.46778 2.25087 7.55591 2.16452 7.73217 1.99182L8.15999 1.57265Z" fill="#ECAB00"/>
<path d="M8.30285 10.4468L7.82555 9.96948L8.30285 10.4468ZM11.7271 7.97711C11.9907 7.71351 11.9907 7.28612 11.7271 7.02252C11.4635 6.75891 11.0361 6.75891 10.7725 7.02251L11.2498 7.49981L11.7271 7.97711ZM8.19678 10.4468L8.67408 9.96948L8.67408 9.96948L8.19678 10.4468ZM7.22711 8.52251C6.9635 8.25891 6.53612 8.25891 6.27251 8.52252C6.00891 8.78612 6.00891 9.21351 6.27251 9.47711L6.74981 8.99981L7.22711 8.52251ZM6.59362 2.29689L6.76166 1.64314V1.64314L6.59362 2.29689ZM7.06837 2.38247L7.10645 3.0564L7.06837 2.38247ZM7.73217 1.99182L8.20457 2.47397L7.73217 1.99182ZM7.36382 2.30331L7.6678 2.90598L7.36382 2.30331ZM4.55893 2.98761L3.90875 2.80626V2.80626L4.55893 2.98761ZM4.8445 2.2603L5.34428 2.71401L4.8445 2.2603ZM6.01354 2.14779L5.8455 2.80154V2.80154L6.01354 2.14779ZM5.24088 2.03146L5.09784 1.37178L5.24088 2.03146ZM3.56453 4.39801L3.38318 3.74783H3.38318L3.56453 4.39801ZM4.01846 4.23475L4.38841 4.79935L4.01846 4.23475ZM4.39801 3.56453L5.04819 3.74589V3.74588L4.39801 3.56453ZM4.23475 4.01846L4.79935 4.38841L4.23475 4.01846ZM2.14779 6.01354L2.80154 5.8455L2.14779 6.01354ZM2.03146 5.24088L1.37178 5.09784L2.03146 5.24088ZM2.98761 4.55893L3.16896 5.20911H3.16896L2.98761 4.55893ZM2.2603 4.8445L2.71401 5.34428L2.2603 4.8445ZM1.99182 7.73217L2.47397 8.20457H2.47397L1.99182 7.73217ZM2.30331 7.36382L2.90598 7.6678L2.30331 7.36382ZM2.2969 6.59362L1.64315 6.76166H1.64315L2.2969 6.59362ZM2.38247 7.06837L3.0564 7.10645L2.38247 7.06837ZM1.57265 9.83963L1.0905 10.312L1.57265 9.83963ZM1.08557 9.22866L0.442762 9.43462H0.442762L1.08557 9.22866ZM1.57265 8.15999L1.09051 7.68759L1.09051 7.68759L1.57265 8.15999ZM1.08557 8.77096L0.442762 8.565H0.442762L1.08557 8.77096ZM2.29689 11.406L2.95064 11.574L2.29689 11.406ZM2.38247 10.9313L3.0564 10.8932L2.38247 10.9313ZM1.99182 10.2675L2.47397 9.79505L1.99182 10.2675ZM2.30331 10.6358L2.90598 10.3318L2.30331 10.6358ZM2.98761 13.4407L3.16896 12.7905H3.16896L2.98761 13.4407ZM2.2603 13.1551L2.71401 12.6553L2.2603 13.1551ZM2.14779 11.9861L1.49404 11.8181H1.49404L2.14779 11.9861ZM2.03146 12.7587L1.37178 12.9018L2.03146 12.7587ZM4.39801 14.4351L5.04819 14.2537L4.39801 14.4351ZM4.23475 13.9812L4.79935 13.6112L4.23475 13.9812ZM3.56453 13.6016L3.38318 14.2518H3.38318L3.56453 13.6016ZM4.01846 13.7649L4.38841 13.2003L4.01846 13.7649ZM6.01354 15.8518L5.8455 15.1981H5.8455L6.01354 15.8518ZM5.24088 15.9682L5.38392 15.3085L5.24088 15.9682ZM4.55893 15.012L3.90875 15.1934L4.55893 15.012ZM4.8445 15.7393L4.34473 16.193L4.8445 15.7393ZM7.73217 16.0078L8.20457 15.5257H8.20457L7.73217 16.0078ZM7.36382 15.6963L7.05984 16.299L7.36382 15.6963ZM6.59362 15.7027L6.76166 16.3565H6.76166L6.59362 15.7027ZM7.06837 15.6172L7.10645 14.9432L7.06837 15.6172ZM9.83963 16.427L9.36723 15.9448L9.83963 16.427ZM9.22866 16.9141L9.0227 16.2712L9.22866 16.9141ZM8.15999 16.427L7.68759 16.9091H7.68759L8.15999 16.427ZM8.77096 16.9141L8.97693 16.2712L8.77096 16.9141ZM11.406 15.7027L11.238 16.3565L11.406 15.7027ZM10.9313 15.6172L10.8932 14.9432L10.9313 15.6172ZM10.2675 16.0078L10.7398 16.4899L10.2675 16.0078ZM10.6358 15.6963L10.9398 16.299L10.6358 15.6963ZM13.4407 15.012L12.7905 14.8307L12.7905 14.8307L13.4407 15.012ZM13.1551 15.7393L13.6549 16.193L13.1551 15.7393ZM11.9861 15.8518L12.1541 15.1981L11.9861 15.8518ZM12.7587 15.9682L12.6157 15.3085L12.7587 15.9682ZM14.4351 13.6016L14.6164 14.2518L14.4351 13.6016ZM13.9812 13.7649L13.6112 13.2003L13.9812 13.7649ZM13.6016 14.4351L14.2518 14.6164L14.2518 14.6164L13.6016 14.4351ZM13.7649 13.9812L13.2003 13.6112L13.7649 13.9812ZM15.8518 11.9861L15.1981 12.1541V12.1541L15.8518 11.9861ZM15.9682 12.7587L15.3085 12.6157L15.9682 12.7587ZM15.012 13.4407L14.8307 12.7905L15.012 13.4407ZM15.7393 13.1551L16.193 13.6549L15.7393 13.1551ZM16.0078 10.2675L15.5257 9.79505V9.79505L16.0078 10.2675ZM15.6963 10.6358L16.299 10.9398L15.6963 10.6358ZM15.7027 11.406L16.3565 11.238L15.7027 11.406ZM15.6172 10.9313L14.9432 10.8932L15.6172 10.9313ZM16.427 8.15999L15.9448 8.63239L16.427 8.15999ZM16.9141 8.77096L16.2712 8.97693L16.9141 8.77096ZM16.427 9.83963L16.9091 10.312L16.427 9.83963ZM16.9141 9.22866L16.2712 9.0227L16.9141 9.22866ZM15.7027 6.59362L16.3565 6.76166L15.7027 6.59362ZM15.6172 7.06837L14.9432 7.10645L15.6172 7.06837ZM16.0078 7.73217L16.4899 7.25978V7.25978L16.0078 7.73217ZM15.6963 7.36382L16.299 7.05984L15.6963 7.36382ZM15.012 4.55893L14.8307 5.20911L15.012 4.55893ZM15.7393 4.8445L16.193 4.34473L15.7393 4.8445ZM15.8518 6.01354L15.1981 5.8455L15.8518 6.01354ZM15.9682 5.24088L15.3085 5.38392L15.9682 5.24088ZM13.6016 3.56453L14.2518 3.38318L14.2518 3.38318L13.6016 3.56453ZM13.7649 4.01846L13.2003 4.38841L13.7649 4.01846ZM14.4351 4.39801L14.6164 3.74783L14.6164 3.74783L14.4351 4.39801ZM13.9812 4.23475L13.6112 4.79935L13.9812 4.23475ZM11.9861 2.14779L12.1541 2.80154L11.9861 2.14779ZM12.7587 2.03146L12.9018 1.37178L12.7587 2.03146ZM13.4407 2.98761L12.7905 3.16896L12.7905 3.16896L13.4407 2.98761ZM13.1551 2.2603L12.6553 2.71401L13.1551 2.2603ZM10.2675 1.99182L9.79505 2.47397V2.47397L10.2675 1.99182ZM10.6358 2.30331L10.3318 2.90598L10.6358 2.30331ZM11.406 2.2969L11.238 1.64315V1.64315L11.406 2.2969ZM10.9313 2.38247L10.8932 3.0564L10.9313 2.38247ZM9.83963 1.57265L10.312 1.09051L10.312 1.09051L9.83963 1.57265ZM9.22866 1.08557L9.43462 0.442762V0.442762L9.22866 1.08557ZM8.15999 1.57265L7.68759 1.0905L8.15999 1.57265ZM8.77096 1.08557L8.565 0.442762V0.442762L8.77096 1.08557ZM8.30285 10.4468L8.78014 10.9241L11.7271 7.97711L11.2498 7.49981L10.7725 7.02251L7.82555 9.96948L8.30285 10.4468ZM8.19678 10.4468L8.67408 9.96948L7.22711 8.52251L6.74981 8.99981L6.27251 9.47711L7.71948 10.9241L8.19678 10.4468ZM8.30285 10.4468L7.82555 9.96948C8.05986 9.73517 8.43976 9.73517 8.67408 9.96948L8.19678 10.4468L7.71948 10.9241C8.01237 11.217 8.48725 11.217 8.78014 10.9241L8.30285 10.4468ZM9.83963 1.57265L9.36723 2.0548L9.79505 2.47397L10.2675 1.99182L10.7398 1.50968L10.312 1.09051L9.83963 1.57265ZM11.406 2.2969L11.574 2.95064L12.1541 2.80154L11.9861 2.14779L11.818 1.49404L11.238 1.64315L11.406 2.2969ZM13.4407 2.98761L12.7905 3.16896L12.9514 3.74589L13.6016 3.56453L14.2518 3.38318L14.0909 2.80626L13.4407 2.98761ZM14.4351 4.39801L14.2537 5.04819L14.8307 5.20911L15.012 4.55893L15.1934 3.90875L14.6164 3.74783L14.4351 4.39801ZM15.8518 6.01354L15.1981 5.8455L15.049 6.42559L15.7027 6.59362L16.3565 6.76166L16.5056 6.18157L15.8518 6.01354ZM16.0078 7.73217L15.5257 8.20457L15.9448 8.63239L16.427 8.15999L16.9091 7.68759L16.4899 7.25978L16.0078 7.73217ZM16.427 9.83963L15.9448 9.36723L15.5257 9.79505L16.0078 10.2675L16.4899 10.7399L16.9091 10.312L16.427 9.83963ZM15.7027 11.406L15.049 11.574L15.1981 12.1541L15.8518 11.9861L16.5056 11.8181L16.3565 11.238L15.7027 11.406ZM15.012 13.4407L14.8307 12.7905L14.2537 12.9514L14.4351 13.6016L14.6164 14.2518L15.1934 14.0909L15.012 13.4407ZM13.6016 14.4351L12.9514 14.2537L12.7905 14.8307L13.4407 15.012L14.0909 15.1934L14.2518 14.6164L13.6016 14.4351ZM11.9861 15.8518L12.1541 15.1981L11.574 15.049L11.406 15.7027L11.238 16.3565L11.8181 16.5056L11.9861 15.8518ZM10.2675 16.0078L9.79505 15.5257L9.36723 15.9448L9.83963 16.427L10.312 16.9091L10.7398 16.4899L10.2675 16.0078ZM8.15999 16.427L8.63239 15.9448L8.20457 15.5257L7.73217 16.0078L7.25977 16.4899L7.68759 16.9091L8.15999 16.427ZM6.59362 15.7027L6.42559 15.049L5.8455 15.1981L6.01354 15.8518L6.18157 16.5056L6.76166 16.3565L6.59362 15.7027ZM4.55893 15.012L5.20911 14.8307L5.04819 14.2537L4.39801 14.4351L3.74783 14.6164L3.90875 15.1934L4.55893 15.012ZM3.56453 13.6016L3.74589 12.9514L3.16896 12.7905L2.98761 13.4407L2.80626 14.0909L3.38318 14.2518L3.56453 13.6016ZM2.14779 11.9861L2.80154 12.1541L2.95064 11.574L2.29689 11.406L1.64314 11.238L1.49404 11.8181L2.14779 11.9861ZM1.99182 10.2675L2.47397 9.79505L2.0548 9.36723L1.57265 9.83963L1.0905 10.312L1.50968 10.7398L1.99182 10.2675ZM1.57265 8.15999L2.0548 8.63239L2.47397 8.20457L1.99182 7.73217L1.50968 7.25977L1.09051 7.68759L1.57265 8.15999ZM2.2969 6.59362L2.95064 6.42559L2.80154 5.8455L2.14779 6.01354L1.49404 6.18157L1.64315 6.76166L2.2969 6.59362ZM2.98761 4.55893L3.16896 5.20911L3.74589 5.04819L3.56453 4.39801L3.38318 3.74783L2.80626 3.90875L2.98761 4.55893ZM4.39801 3.56453L5.04819 3.74588L5.20911 3.16896L4.55893 2.98761L3.90875 2.80626L3.74783 3.38318L4.39801 3.56453ZM6.01354 2.14779L5.8455 2.80154L6.42559 2.95064L6.59362 2.29689L6.76166 1.64314L6.18157 1.49404L6.01354 2.14779ZM7.73217 1.99182L8.20457 2.47397L8.63239 2.0548L8.15999 1.57265L7.68759 1.0905L7.25977 1.50968L7.73217 1.99182ZM6.59362 2.29689L6.42559 2.95064C6.62158 3.00102 6.86078 3.07028 7.10645 3.0564L7.06837 2.38247L7.03029 1.70855C7.04837 1.70753 7.0497 1.71117 7.00667 1.70275C6.95615 1.69286 6.88853 1.67575 6.76166 1.64314L6.59362 2.29689ZM7.73217 1.99182L7.25977 1.50968C7.16621 1.60135 7.1162 1.64998 7.0774 1.6838C7.04434 1.71261 7.04367 1.70879 7.05984 1.70063L7.36382 2.30331L7.6678 2.90598C7.8875 2.79517 8.06003 2.61559 8.20457 2.47397L7.73217 1.99182ZM7.06837 2.38247L7.10645 3.0564C7.30191 3.04535 7.493 2.99415 7.6678 2.90598L7.36382 2.30331L7.05984 1.70063C7.05064 1.70527 7.04058 1.70797 7.03029 1.70855L7.06837 2.38247ZM4.55893 2.98761L5.20911 3.16896C5.26746 2.95975 5.30092 2.84172 5.3319 2.75759C5.36011 2.68099 5.36697 2.68901 5.34428 2.71401L4.8445 2.2603L4.34473 1.80659C4.20264 1.96311 4.12211 2.13619 4.06507 2.29107C4.01081 2.43842 3.96118 2.61828 3.90875 2.80626L4.55893 2.98761ZM6.01354 2.14779L6.18157 1.49404C5.99256 1.44546 5.81198 1.39851 5.65724 1.37183C5.4946 1.34379 5.30444 1.32699 5.09784 1.37178L5.24088 2.03146L5.38392 2.69113C5.35092 2.69828 5.3474 2.68833 5.42784 2.7022C5.51619 2.71743 5.63514 2.74747 5.8455 2.80154L6.01354 2.14779ZM4.8445 2.2603L5.34428 2.71401C5.35478 2.70244 5.36864 2.69444 5.38392 2.69113L5.24088 2.03146L5.09784 1.37178C4.80763 1.43471 4.54433 1.58673 4.34473 1.80659L4.8445 2.2603ZM3.56453 4.39801L3.74589 5.04819C3.94081 4.99382 4.18259 4.9342 4.38841 4.79935L4.01846 4.23475L3.64852 3.67015C3.66367 3.66023 3.66664 3.66272 3.62517 3.67694C3.57648 3.69364 3.50936 3.71263 3.38318 3.74783L3.56453 4.39801ZM4.39801 3.56453L3.74783 3.38318C3.71263 3.50936 3.69364 3.57648 3.67694 3.62516C3.66272 3.66664 3.66023 3.66367 3.67015 3.64852L4.23475 4.01846L4.79935 4.38841C4.9342 4.18259 4.99382 3.94081 5.04819 3.74589L4.39801 3.56453ZM4.01846 4.23475L4.38841 4.79935C4.55216 4.69205 4.69205 4.55216 4.79935 4.38841L4.23475 4.01846L3.67015 3.64852C3.66451 3.65714 3.65714 3.66451 3.64852 3.67015L4.01846 4.23475ZM2.14779 6.01354L2.80154 5.8455C2.74747 5.63514 2.71743 5.51619 2.7022 5.42784C2.68833 5.3474 2.69828 5.35092 2.69113 5.38392L2.03146 5.24088L1.37178 5.09784C1.32699 5.30444 1.34379 5.4946 1.37183 5.65724C1.39851 5.81198 1.44546 5.99256 1.49404 6.18157L2.14779 6.01354ZM2.98761 4.55893L2.80626 3.90875C2.61828 3.96118 2.43842 4.01081 2.29107 4.06507C2.13619 4.12211 1.96311 4.20264 1.80659 4.34473L2.2603 4.8445L2.71401 5.34428C2.68901 5.36697 2.68099 5.36011 2.75759 5.3319C2.84172 5.30092 2.95975 5.26746 3.16896 5.20911L2.98761 4.55893ZM2.03146 5.24088L2.69113 5.38392C2.69444 5.36864 2.70244 5.35478 2.71401 5.34428L2.2603 4.8445L1.80659 4.34473C1.58673 4.54433 1.43471 4.80763 1.37178 5.09784L2.03146 5.24088ZM1.99182 7.73217L2.47397 8.20457C2.61559 8.06003 2.79517 7.8875 2.90598 7.6678L2.30331 7.36382L1.70063 7.05984C1.70879 7.04367 1.71261 7.04434 1.6838 7.0774C1.64998 7.1162 1.60135 7.16621 1.50968 7.25977L1.99182 7.73217ZM2.2969 6.59362L1.64315 6.76166C1.67575 6.88853 1.69286 6.95615 1.70275 7.00667C1.71117 7.0497 1.70753 7.04837 1.70855 7.03029L2.38247 7.06837L3.0564 7.10645C3.07028 6.86078 3.00102 6.62158 2.95064 6.42559L2.2969 6.59362ZM2.30331 7.36382L2.90598 7.6678C2.99415 7.493 3.04535 7.30191 3.0564 7.10645L2.38247 7.06837L1.70855 7.03029C1.70797 7.04058 1.70527 7.05064 1.70063 7.05984L2.30331 7.36382ZM1.57265 9.83963L2.0548 9.36723C1.90279 9.21209 1.8173 9.1241 1.75993 9.0552C1.7077 8.99247 1.71808 8.99054 1.72838 9.0227L1.08557 9.22866L0.442762 9.43462C0.507265 9.63594 0.616891 9.79222 0.7225 9.91905C0.822975 10.0397 0.953925 10.1726 1.0905 10.312L1.57265 9.83963ZM1.57265 8.15999L1.09051 7.68759C0.953925 7.82699 0.822976 7.95991 0.722501 8.08057C0.616891 8.2074 0.507265 8.36369 0.442762 8.565L1.08557 8.77096L1.72838 8.97693C1.71808 9.00908 1.7077 9.00715 1.75993 8.94442C1.8173 8.87552 1.90279 8.78753 2.0548 8.63239L1.57265 8.15999ZM1.08557 9.22866L1.72838 9.0227C1.72361 9.00781 1.72361 8.99181 1.72838 8.97693L1.08557 8.77096L0.442762 8.565C0.352152 8.84779 0.352152 9.15183 0.442762 9.43462L1.08557 9.22866ZM2.29689 11.406L2.95064 11.574C3.00102 11.378 3.07028 11.1388 3.0564 10.8932L2.38247 10.9313L1.70855 10.9693C1.70753 10.9513 1.71117 10.9499 1.70275 10.993C1.69286 11.0435 1.67575 11.1111 1.64314 11.238L2.29689 11.406ZM1.99182 10.2675L1.50968 10.7398C1.60135 10.8334 1.64998 10.8834 1.6838 10.9222C1.71261 10.9553 1.70879 10.956 1.70063 10.9398L2.30331 10.6358L2.90598 10.3318C2.79517 10.1121 2.61559 9.9396 2.47397 9.79505L1.99182 10.2675ZM2.38247 10.9313L3.0564 10.8932C3.04535 10.6977 2.99415 10.5066 2.90598 10.3318L2.30331 10.6358L1.70063 10.9398C1.70527 10.949 1.70797 10.959 1.70855 10.9693L2.38247 10.9313ZM2.98761 13.4407L3.16896 12.7905C2.95975 12.7322 2.84172 12.6987 2.75759 12.6677C2.68099 12.6395 2.68901 12.6327 2.71401 12.6553L2.2603 13.1551L1.80659 13.6549C1.96311 13.797 2.13619 13.8775 2.29107 13.9346C2.43842 13.9888 2.61828 14.0384 2.80626 14.0909L2.98761 13.4407ZM2.14779 11.9861L1.49404 11.8181C1.44546 12.0071 1.39851 12.1876 1.37183 12.3424C1.34379 12.505 1.32699 12.6952 1.37178 12.9018L2.03146 12.7587L2.69113 12.6157C2.69828 12.6487 2.68833 12.6522 2.7022 12.5718C2.71743 12.4834 2.74747 12.3645 2.80154 12.1541L2.14779 11.9861ZM2.2603 13.1551L2.71401 12.6553C2.70244 12.6448 2.69444 12.631 2.69113 12.6157L2.03146 12.7587L1.37178 12.9018C1.43471 13.192 1.58673 13.4553 1.80659 13.6549L2.2603 13.1551ZM4.39801 14.4351L5.04819 14.2537C4.99382 14.0588 4.9342 13.817 4.79935 13.6112L4.23475 13.9812L3.67015 14.3511C3.66023 14.336 3.66272 14.333 3.67694 14.3745C3.69364 14.4231 3.71263 14.4903 3.74783 14.6164L4.39801 14.4351ZM3.56453 13.6016L3.38318 14.2518C3.50936 14.287 3.57648 14.306 3.62517 14.3227C3.66665 14.3369 3.66367 14.3394 3.64852 14.3295L4.01846 13.7649L4.38841 13.2003C4.18259 13.0654 3.9408 13.0058 3.74589 12.9514L3.56453 13.6016ZM4.23475 13.9812L4.79935 13.6112C4.69205 13.4475 4.55216 13.3076 4.38841 13.2003L4.01846 13.7649L3.64852 14.3295C3.65714 14.3351 3.6645 14.3425 3.67015 14.3511L4.23475 13.9812ZM6.01354 15.8518L5.8455 15.1981C5.63514 15.2522 5.51619 15.2822 5.42784 15.2974C5.3474 15.3113 5.35092 15.3013 5.38392 15.3085L5.24088 15.9682L5.09784 16.6278C5.30444 16.6726 5.4946 16.6558 5.65724 16.6278C5.81198 16.6011 5.99256 16.5542 6.18157 16.5056L6.01354 15.8518ZM4.55893 15.012L3.90875 15.1934C3.96118 15.3813 4.01081 15.5612 4.06507 15.7086C4.12211 15.8634 4.20264 16.0365 4.34473 16.193L4.8445 15.7393L5.34428 15.2856C5.36697 15.3106 5.36011 15.3186 5.3319 15.242C5.30092 15.1579 5.26746 15.0399 5.20911 14.8307L4.55893 15.012ZM5.24088 15.9682L5.38392 15.3085C5.36864 15.3052 5.35478 15.2972 5.34428 15.2856L4.8445 15.7393L4.34473 16.193C4.54433 16.4129 4.80763 16.5649 5.09784 16.6278L5.24088 15.9682ZM7.73217 16.0078L8.20457 15.5257C8.06002 15.384 7.8875 15.2045 7.6678 15.0936L7.36382 15.6963L7.05984 16.299C7.04367 16.2908 7.04434 16.287 7.0774 16.3158C7.1162 16.3496 7.16621 16.3983 7.25977 16.4899L7.73217 16.0078ZM6.59362 15.7027L6.76166 16.3565C6.88853 16.3239 6.95615 16.3068 7.00667 16.2969C7.0497 16.2885 7.04837 16.2921 7.03029 16.2911L7.06837 15.6172L7.10645 14.9432C6.86078 14.9293 6.62158 14.9986 6.42559 15.049L6.59362 15.7027ZM7.36382 15.6963L7.6678 15.0936C7.49301 15.0055 7.30192 14.9543 7.10645 14.9432L7.06837 15.6172L7.03029 16.2911C7.04058 16.2917 7.05063 16.2944 7.05984 16.299L7.36382 15.6963ZM9.83963 16.427L9.36723 15.9448C9.21209 16.0968 9.1241 16.1823 9.0552 16.2397C8.99247 16.2919 8.99054 16.2815 9.0227 16.2712L9.22866 16.9141L9.43462 17.5569C9.63594 17.4924 9.79222 17.3827 9.91905 17.2771C10.0397 17.1766 10.1726 17.0457 10.312 16.9091L9.83963 16.427ZM8.15999 16.427L7.68759 16.9091C7.82699 17.0457 7.95991 17.1766 8.08057 17.2771C8.2074 17.3827 8.36369 17.4924 8.565 17.5569L8.77096 16.9141L8.97693 16.2712C9.00908 16.2815 9.00715 16.2919 8.94442 16.2397C8.87552 16.1823 8.78753 16.0968 8.63239 15.9448L8.15999 16.427ZM9.22866 16.9141L9.0227 16.2712C9.00781 16.276 8.99181 16.276 8.97693 16.2712L8.77096 16.9141L8.565 17.5569C8.84779 17.6475 9.15183 17.6475 9.43462 17.5569L9.22866 16.9141ZM11.406 15.7027L11.574 15.049C11.378 14.9986 11.1388 14.9293 10.8932 14.9432L10.9313 15.6172L10.9693 16.2911C10.9513 16.2921 10.9499 16.2885 10.993 16.2969C11.0435 16.3068 11.1111 16.3239 11.238 16.3565L11.406 15.7027ZM10.2675 16.0078L10.7398 16.4899C10.8334 16.3983 10.8834 16.3496 10.9222 16.3158C10.9553 16.287 10.956 16.2908 10.9398 16.299L10.6358 15.6963L10.3318 15.0936C10.1121 15.2045 9.9396 15.384 9.79505 15.5257L10.2675 16.0078ZM10.9313 15.6172L10.8932 14.9432C10.6977 14.9543 10.5066 15.0055 10.3318 15.0936L10.6358 15.6963L10.9398 16.299C10.949 16.2944 10.959 16.2917 10.9693 16.2911L10.9313 15.6172ZM13.4407 15.012L12.7905 14.8307C12.7322 15.0399 12.6987 15.1579 12.6677 15.242C12.6395 15.3186 12.6327 15.3106 12.6553 15.2856L13.1551 15.7393L13.6549 16.193C13.797 16.0365 13.8775 15.8634 13.9346 15.7086C13.9888 15.5612 14.0384 15.3813 14.0909 15.1934L13.4407 15.012ZM11.9861 15.8518L11.8181 16.5056C12.0071 16.5542 12.1876 16.6011 12.3424 16.6278C12.505 16.6558 12.6952 16.6726 12.9018 16.6278L12.7587 15.9682L12.6157 15.3085C12.6487 15.3013 12.6522 15.3113 12.5718 15.2974C12.4834 15.2822 12.3645 15.2522 12.1541 15.1981L11.9861 15.8518ZM13.1551 15.7393L12.6553 15.2856C12.6448 15.2972 12.631 15.3052 12.6157 15.3085L12.7587 15.9682L12.9018 16.6278C13.192 16.5649 13.4553 16.4129 13.6549 16.193L13.1551 15.7393ZM14.4351 13.6016L14.2537 12.9514C14.0588 13.0058 13.817 13.0654 13.6112 13.2003L13.9812 13.7649L14.3511 14.3295C14.336 14.3394 14.333 14.3369 14.3745 14.3227C14.4231 14.306 14.4903 14.287 14.6164 14.2518L14.4351 13.6016ZM13.6016 14.4351L14.2518 14.6164C14.287 14.4903 14.306 14.4231 14.3227 14.3745C14.3369 14.333 14.3394 14.336 14.3295 14.3511L13.7649 13.9812L13.2003 13.6112C13.0654 13.817 13.0058 14.0588 12.9514 14.2537L13.6016 14.4351ZM13.9812 13.7649L13.6112 13.2003C13.4475 13.3076 13.3076 13.4475 13.2003 13.6112L13.7649 13.9812L14.3295 14.3511C14.3351 14.3425 14.3425 14.3351 14.3511 14.3295L13.9812 13.7649ZM15.8518 11.9861L15.1981 12.1541C15.2522 12.3645 15.2822 12.4834 15.2974 12.5718C15.3113 12.6522 15.3013 12.6487 15.3085 12.6157L15.9682 12.7587L16.6278 12.9018C16.6726 12.6952 16.6558 12.505 16.6278 12.3424C16.6011 12.1876 16.5542 12.0071 16.5056 11.8181L15.8518 11.9861ZM15.012 13.4407L15.1934 14.0909C15.3813 14.0384 15.5612 13.9888 15.7086 13.9346C15.8634 13.8775 16.0365 13.797 16.193 13.6549L15.7393 13.1551L15.2856 12.6553C15.3106 12.6327 15.3186 12.6395 15.242 12.6677C15.1579 12.6987 15.0399 12.7322 14.8307 12.7905L15.012 13.4407ZM15.9682 12.7587L15.3085 12.6157C15.3052 12.631 15.2972 12.6448 15.2856 12.6553L15.7393 13.1551L16.193 13.6549C16.4129 13.4553 16.5649 13.192 16.6278 12.9018L15.9682 12.7587ZM16.0078 10.2675L15.5257 9.79505C15.384 9.9396 15.2045 10.1121 15.0936 10.3318L15.6963 10.6358L16.299 10.9398C16.2908 10.956 16.287 10.9553 16.3158 10.9222C16.3496 10.8834 16.3983 10.8334 16.4899 10.7398L16.0078 10.2675ZM15.7027 11.406L16.3565 11.238C16.3239 11.1111 16.3068 11.0435 16.2969 10.993C16.2885 10.9499 16.2921 10.9513 16.2911 10.9693L15.6172 10.9313L14.9432 10.8932C14.9293 11.1388 14.9986 11.378 15.049 11.574L15.7027 11.406ZM15.6963 10.6358L15.0936 10.3318C15.0055 10.5066 14.9543 10.6977 14.9432 10.8932L15.6172 10.9313L16.2911 10.9693C16.2917 10.959 16.2944 10.949 16.299 10.9398L15.6963 10.6358ZM16.427 8.15999L15.9448 8.63239C16.0968 8.78753 16.1823 8.87553 16.2397 8.94442C16.2919 9.00715 16.2815 9.00908 16.2712 8.97693L16.9141 8.77096L17.5569 8.565C17.4924 8.36369 17.3827 8.2074 17.2771 8.08057C17.1766 7.95991 17.0457 7.82699 16.9091 7.68759L16.427 8.15999ZM16.427 9.83963L16.9091 10.312C17.0457 10.1726 17.1766 10.0397 17.2771 9.91905C17.3827 9.79222 17.4924 9.63594 17.5569 9.43462L16.9141 9.22866L16.2712 9.0227C16.2815 8.99054 16.2919 8.99247 16.2397 9.0552C16.1823 9.1241 16.0968 9.21209 15.9448 9.36723L16.427 9.83963ZM16.9141 8.77096L16.2712 8.97693C16.276 8.99181 16.276 9.00781 16.2712 9.0227L16.9141 9.22866L17.5569 9.43462C17.6475 9.15183 17.6475 8.84779 17.5569 8.565L16.9141 8.77096ZM15.7027 6.59362L15.049 6.42559C14.9986 6.62158 14.9293 6.86078 14.9432 7.10645L15.6172 7.06837L16.2911 7.03029C16.2921 7.04837 16.2885 7.0497 16.2969 7.00667C16.3068 6.95615 16.3239 6.88853 16.3565 6.76166L15.7027 6.59362ZM16.0078 7.73217L16.4899 7.25978C16.3983 7.16621 16.3496 7.1162 16.3158 7.0774C16.287 7.04434 16.2908 7.04367 16.299 7.05984L15.6963 7.36382L15.0936 7.6678C15.2045 7.8875 15.384 8.06003 15.5257 8.20457L16.0078 7.73217ZM15.6172 7.06837L14.9432 7.10645C14.9543 7.30192 15.0055 7.49301 15.0936 7.6678L15.6963 7.36382L16.299 7.05984C16.2944 7.05063 16.2917 7.04058 16.2911 7.03029L15.6172 7.06837ZM15.012 4.55893L14.8307 5.20911C15.0399 5.26746 15.1579 5.30092 15.242 5.3319C15.3186 5.36011 15.3106 5.36697 15.2856 5.34428L15.7393 4.8445L16.193 4.34473C16.0365 4.20264 15.8634 4.12211 15.7086 4.06507C15.5612 4.01081 15.3813 3.96118 15.1934 3.90875L15.012 4.55893ZM15.8518 6.01354L16.5056 6.18157C16.5542 5.99256 16.6011 5.81198 16.6278 5.65724C16.6558 5.4946 16.6726 5.30444 16.6278 5.09784L15.9682 5.24088L15.3085 5.38392C15.3013 5.35092 15.3113 5.3474 15.2974 5.42784C15.2822 5.51619 15.2522 5.63514 15.1981 5.8455L15.8518 6.01354ZM15.7393 4.8445L15.2856 5.34428C15.2972 5.35478 15.3052 5.36864 15.3085 5.38392L15.9682 5.24088L16.6278 5.09784C16.5649 4.80763 16.4129 4.54433 16.193 4.34473L15.7393 4.8445ZM13.6016 3.56453L12.9514 3.74589C13.0058 3.9408 13.0654 4.18259 13.2003 4.38841L13.7649 4.01846L14.3295 3.64852C14.3394 3.66367 14.3369 3.66665 14.3227 3.62517C14.306 3.57648 14.287 3.50936 14.2518 3.38318L13.6016 3.56453ZM14.4351 4.39801L14.6164 3.74783C14.4903 3.71263 14.4231 3.69364 14.3745 3.67694C14.333 3.66272 14.336 3.66023 14.3511 3.67015L13.9812 4.23475L13.6112 4.79935C13.817 4.9342 14.0588 4.99382 14.2537 5.04819L14.4351 4.39801ZM13.7649 4.01846L13.2003 4.38841C13.3076 4.55216 13.4475 4.69205 13.6112 4.79935L13.9812 4.23475L14.3511 3.67015C14.3425 3.6645 14.3351 3.65714 14.3295 3.64852L13.7649 4.01846ZM11.9861 2.14779L12.1541 2.80154C12.3645 2.74747 12.4834 2.71743 12.5718 2.7022C12.6522 2.68833 12.6487 2.69828 12.6157 2.69113L12.7587 2.03146L12.9018 1.37178C12.6952 1.32699 12.505 1.34379 12.3424 1.37183C12.1876 1.39851 12.0071 1.44546 11.818 1.49404L11.9861 2.14779ZM13.4407 2.98761L14.0909 2.80626C14.0384 2.61828 13.9888 2.43842 13.9346 2.29107C13.8775 2.13619 13.797 1.96311 13.6549 1.80659L13.1551 2.2603L12.6553 2.71401C12.6327 2.68901 12.6395 2.68099 12.6677 2.75759C12.6987 2.84172 12.7322 2.95975 12.7905 3.16896L13.4407 2.98761ZM12.7587 2.03146L12.6157 2.69113C12.631 2.69444 12.6448 2.70244 12.6553 2.71401L13.1551 2.2603L13.6549 1.80659C13.4553 1.58673 13.192 1.43471 12.9018 1.37178L12.7587 2.03146ZM10.2675 1.99182L9.79505 2.47397C9.9396 2.61559 10.1121 2.79517 10.3318 2.90598L10.6358 2.30331L10.9398 1.70063C10.956 1.70879 10.9553 1.71261 10.9222 1.6838C10.8834 1.64998 10.8334 1.60135 10.7398 1.50968L10.2675 1.99182ZM11.406 2.2969L11.238 1.64315C11.1111 1.67575 11.0435 1.69286 10.993 1.70275C10.9499 1.71117 10.9513 1.70753 10.9693 1.70855L10.9313 2.38247L10.8932 3.0564C11.1388 3.07028 11.378 3.00102 11.574 2.95064L11.406 2.2969ZM10.6358 2.30331L10.3318 2.90598C10.5066 2.99415 10.6977 3.04535 10.8932 3.0564L10.9313 2.38247L10.9693 1.70855C10.959 1.70797 10.949 1.70527 10.9398 1.70063L10.6358 2.30331ZM9.83963 1.57265L10.312 1.09051C10.1726 0.953925 10.0397 0.822976 9.91905 0.722501C9.79222 0.616891 9.63594 0.507265 9.43462 0.442762L9.22866 1.08557L9.0227 1.72838C8.99054 1.71808 8.99247 1.7077 9.0552 1.75993C9.1241 1.8173 9.21209 1.90279 9.36723 2.0548L9.83963 1.57265ZM8.15999 1.57265L8.63239 2.0548C8.78753 1.90279 8.87552 1.8173 8.94442 1.75993C9.00715 1.7077 9.00908 1.71808 8.97693 1.72838L8.77096 1.08557L8.565 0.442762C8.36369 0.507265 8.2074 0.616891 8.08057 0.7225C7.95991 0.822975 7.82699 0.953925 7.68759 1.0905L8.15999 1.57265ZM9.22866 1.08557L9.43462 0.442762C9.15183 0.352152 8.84779 0.352152 8.565 0.442762L8.77096 1.08557L8.97693 1.72838C8.99181 1.72361 9.00781 1.72361 9.0227 1.72838L9.22866 1.08557Z" fill="#ECAB00"/>
<path d="M6.2998 8.55L8.7498 11.2L12.5998 6.75" stroke="#2C3236" stroke-width="0.9" stroke-linecap="round"/>
</g>
<defs>
<clipPath id="clip0_1048_15288">
<rect width="18" height="18" fill="white"/>
</clipPath>
</defs>
</svg>
